<?xml version="1.0" encoding="UTF-8" standalone="no"?>
<svg viewBox="0 0 391 181" version="1.1" xmlns="http://www.w3.org/2000/svg" xmlns:xlink="http://www.w3.org/1999/xlink">
    <!-- Generator: Sketch 43.2 (39069) - http://www.bohemiancoding.com/sketch -->
    <title>Artboard 4</title>
    <desc>Created with Sketch.</desc>
    <defs></defs>
    <g id="Page-1" stroke="none" stroke-width="1" fill="none" fill-rule="evenodd">
        <g id="Artboard-4" fill="#000000">
            <g id="wifi-copy" transform="translate(283.000000, 63.000000) rotate(-12.000000) translate(-283.000000, -63.000000) translate(227.000000, 38.000000)" fill-rule="nonzero">
                <path d="M111.220994,22.8929513 C96.5655569,8.38163616 77.045883,0.390797381 56.2636118,0.390797381 C35.4813406,0.390797381 15.9636901,8.37963294 1.30622999,22.8929513 C0.515083266,23.6762097 0.515083266,24.9422439 1.30622999,25.7255023 C2.09737672,26.5087608 3.3761612,26.5087608 4.16730793,25.7255023 C18.0599254,11.9694006 36.5618325,4.39523125 56.2636118,4.39523125 C75.9653911,4.39523125 94.4672982,11.9694006 108.359916,25.7234991 C108.754477,26.1141267 109.272466,26.3104421 109.790455,26.3104421 C110.308443,26.3104421 110.826432,26.1141267 111.220994,25.7234991 C112.01214,24.9422439 112.01214,23.6742065 111.220994,22.8929513 Z" id="Shape"></path>
                <path d="M13.199735,34.6658667 C12.4085883,35.4491251 12.4085883,36.7151593 13.199735,37.4984177 C13.5942967,37.8890453 14.1122854,38.0853607 14.630274,38.0853607 C15.1482627,38.0853607 15.6662513,37.8890453 16.060813,37.4984177 C38.2270851,15.5511553 74.2960917,15.5511553 96.4643873,37.4984177 C97.255534,38.2816762 98.5343185,38.2816762 99.3254652,37.4984177 C100.116612,36.7151593 100.116612,35.4491251 99.3254652,34.6658667 C75.5829698,11.1601003 36.9462772,11.1560938 13.199735,34.6658667 Z" id="Shape"></path>
                <path d="M56.2636118,33.6802832 C44.4773466,33.6802832 33.409386,38.2135667 25.0952635,46.4427885 C24.3041167,47.226047 24.3041167,48.4920811 25.0952635,49.2753395 C25.8864102,50.058598 27.1651947,50.058598 27.9563414,49.2753395 C35.5056213,41.8033344 45.5578386,37.6867202 56.2636118,37.6867202 C66.9693851,37.6867202 77.0216023,41.8033344 84.5708822,49.2753395 C84.9654439,49.6659671 85.4834325,49.8622826 86.0014212,49.8622826 C86.5194098,49.8622826 87.0373985,49.6659671 87.4319602,49.2753395 C88.2231069,48.4920811 88.2231069,47.226047 87.4319602,46.4427885 C79.119861,38.2135667 68.049877,33.6802832 56.2636118,33.6802832 Z" id="Shape"></path>
            </g>
            <g id="turtle-facing-right" transform="translate(243.000000, 84.000000)" fill-rule="nonzero">
                <path d="M113.089616,0.321272727 C100.738489,0.898597403 104.65802,15.1437013 93.5864756,16.2194416 C93.6183844,15.3772078 93.6369642,14.5285325 93.6369642,13.6645584 C93.6369642,12.9805455 93.0896678,12.4213377 92.4018111,12.4088571 C88.1692508,12.3227013 81.8436352,11.3137922 75.1444039,10.2493247 C67.2605081,8.99805195 59.1068013,7.70168831 53.1854984,7.70168831 C51.4923127,7.70168831 50.0875179,7.80435065 48.8907362,8.01974026 C37.5966384,10.0295065 28.9420847,20.7478571 20.5747101,31.1099091 C13.8649772,39.4146883 7.53087948,47.2605065 0.999270358,48.6470519 C0.399869707,48.7787013 -0.0214071661,49.3165714 0.00080781759,49.9289221 C0.0226188925,50.5384545 0.485498371,51.0429091 1.09418893,51.1258442 C3.50188925,51.4511429 5.75610423,51.7643636 7.88470358,52.0687273 L1.2630228,61.7515974 L12.5397524,61.7515974 L16.558241,53.3405325 C19.4877915,53.7813766 22.1289511,54.1944416 24.5217068,54.5624156 C26.6240521,54.8917403 28.5329251,55.1884545 30.3020456,55.4513506 L27.598684,61.7511948 L38.9545798,61.7511948 L38.9545798,56.6092208 C41.9725863,56.9325065 44.7207818,57.1015974 47.6543713,57.1015974 C49.117329,57.1015974 50.592,57.0585195 52.1700717,56.9711558 C54.648456,56.8362857 57.4778371,56.5315195 60.4651466,55.9517792 L60.4651466,61.752 L70.5051075,61.752 L68.9864104,53.5398182 C72.6143192,52.1476364 76.2264756,50.2316753 79.5256026,47.6027143 C80.8007427,46.5837403 81.9858111,45.4842468 83.0892899,44.3187273 C88.850645,51.5558182 88.5897199,61.7524026 88.5897199,61.7524026 L100.303883,61.7524026 C100.048208,52.9298831 92.3557655,42.8766234 87.9458893,37.8155714 C89.7679218,34.658 91.1553485,31.1421169 92.1017068,27.2771818 C101.376261,24.1304805 110.427049,15.0233247 114.404743,13.6653636 C118.589238,12.2349351 123.659505,13.2824935 123.659505,8.18561039 C123.658697,1.99205195 116.791844,0.151376623 113.089616,0.321272727 Z" id="Shape"></path>
            </g>
            <path d="M53.424,101.84 C65.772,101.84 74.424,95.288 74.424,84.284 L74.424,84.116 C74.424,74.372 68.04,69.92 55.608,66.896 C44.268,64.208 41.58,62.192 41.58,57.656 L41.58,57.488 C41.58,53.624 45.108,50.516 51.156,50.516 C56.532,50.516 61.824,52.616 67.116,56.564 L72.66,48.752 C66.696,43.964 59.892,41.36 51.324,41.36 C39.648,41.36 31.248,48.332 31.248,58.412 L31.248,58.58 C31.248,69.416 38.304,73.112 50.82,76.136 C61.74,78.656 64.092,80.924 64.092,85.124 L64.092,85.292 C64.092,89.66 60.06,92.684 53.676,92.684 C46.452,92.684 40.74,89.912 35.112,85.04 L28.896,92.432 C35.952,98.732 44.436,101.84 53.424,101.84 Z M86.604,101 L96.768,101 L96.768,59 L115.164,86.552 L115.5,86.552 L134.064,58.832 L134.064,101 L144.396,101 L144.396,42.2 L133.392,42.2 L115.5,70.004 L97.608,42.2 L86.604,42.2 L86.604,101 Z M180.096,101.84 C192.444,101.84 201.096,95.288 201.096,84.284 L201.096,84.116 C201.096,74.372 194.712,69.92 182.28,66.896 C170.94,64.208 168.252,62.192 168.252,57.656 L168.252,57.488 C168.252,53.624 171.78,50.516 177.828,50.516 C183.204,50.516 188.496,52.616 193.788,56.564 L199.332,48.752 C193.368,43.964 186.564,41.36 177.996,41.36 C166.32,41.36 157.92,48.332 157.92,58.412 L157.92,58.58 C157.92,69.416 164.976,73.112 177.492,76.136 C188.412,78.656 190.764,80.924 190.764,85.124 L190.764,85.292 C190.764,89.66 186.732,92.684 180.348,92.684 C173.124,92.684 167.412,89.912 161.784,85.04 L155.568,92.432 C162.624,98.732 171.108,101.84 180.096,101.84 Z" id="SMS"></path>
            <path d="M31.7009997,146 L36.3749997,146 L36.3749997,135.17 L49.7889997,135.17 L49.7889997,130.914 L36.3749997,130.914 L36.3749997,123.656 L51.4989997,123.656 L51.4989997,119.4 L31.7009997,119.4 L31.7009997,146 Z M63.3229998,146.418 C59.5609998,146.418 56.2169998,144.252 56.2169998,140.224 L56.2169998,140.148 C56.2169998,135.816 59.5989998,133.688 64.5009998,133.688 C66.7429998,133.688 68.3389998,134.03 69.8969998,134.524 L69.8969998,134.03 C69.8969998,131.18 68.1489998,129.66 64.9189998,129.66 C62.6769998,129.66 61.0049998,130.154 59.1809998,130.914 L57.9649998,127.304 C60.1689998,126.316 62.3349998,125.67 65.5269998,125.67 C68.5289998,125.67 70.7709998,126.468 72.1769998,127.912 C73.6589998,129.356 74.3429998,131.484 74.3429998,134.106 L74.3429998,146 L69.8589998,146 L69.8589998,143.492 C68.4909998,145.126 66.4009998,146.418 63.3229998,146.418 Z M64.6149998,143.074 C67.6549998,143.074 69.9729998,141.326 69.9729998,138.78 L69.9729998,137.412 C68.7949998,136.956 67.2369998,136.614 65.4129998,136.614 C62.4489998,136.614 60.7009998,137.868 60.7009998,139.958 L60.7009998,140.034 C60.7009998,141.972 62.4109998,143.074 64.6149998,143.074 Z M82.5189999,146 L87.1169999,146 L87.1169999,118.26 L82.5189999,118.26 L82.5189999,146 Z M95.787,146 L100.385,146 L100.385,118.26 L95.787,118.26 L95.787,146 Z M120.227,146.418 C116.883,146.418 114.793,144.746 113.387,142.884 L113.387,146 L108.789,146 L108.789,118.26 L113.387,118.26 L113.387,129.28 C114.869,127.19 116.959,125.518 120.227,125.518 C124.939,125.518 129.537,129.242 129.537,135.93 L129.537,136.006 C129.537,142.656 124.977,146.418 120.227,146.418 Z M119.125,142.428 C122.279,142.428 124.863,139.958 124.863,136.006 L124.863,135.93 C124.863,132.054 122.241,129.508 119.125,129.508 C116.009,129.508 113.273,132.092 113.273,135.93 L113.273,136.006 C113.273,139.844 116.009,142.428 119.125,142.428 Z M142.463,146.418 C138.701,146.418 135.357,144.252 135.357,140.224 L135.357,140.148 C135.357,135.816 138.739,133.688 143.641,133.688 C145.883,133.688 147.479,134.03 149.037,134.524 L149.037,134.03 C149.037,131.18 147.289,129.66 144.059,129.66 C141.817,129.66 140.145,130.154 138.321,130.914 L137.105,127.304 C139.309,126.316 141.475,125.67 144.667,125.67 C147.669,125.67 149.911,126.468 151.317,127.912 C152.799,129.356 153.483,131.484 153.483,134.106 L153.483,146 L148.999,146 L148.999,143.492 C147.631,145.126 145.541,146.418 142.463,146.418 Z M143.755,143.074 C146.795,143.074 149.113,141.326 149.113,138.78 L149.113,137.412 C147.935,136.956 146.377,136.614 144.553,136.614 C141.589,136.614 139.841,137.868 139.841,139.958 L139.841,140.034 C139.841,141.972 141.551,143.074 143.755,143.074 Z M170.665,146.456 C174.579,146.456 176.897,144.898 178.873,142.694 L176.099,139.958 C174.655,141.44 173.059,142.428 170.893,142.428 C167.359,142.428 164.889,139.578 164.889,136.006 L164.889,135.93 C164.889,132.434 167.359,129.546 170.703,129.546 C172.983,129.546 174.465,130.572 175.871,132.054 L178.759,128.976 C176.859,126.924 174.503,125.518 170.741,125.518 C164.699,125.518 160.291,130.306 160.291,136.006 L160.291,136.082 C160.291,141.782 164.699,146.456 170.665,146.456 Z M185.491,146 L190.089,146 L190.089,140.262 L192.939,137.298 L198.867,146 L204.263,146 L196.017,134.106 L203.997,125.936 L198.411,125.936 L190.089,134.828 L190.089,118.26 L185.491,118.26 L185.491,146 Z" id="Fallback"></path>
        </g>
    </g>
</svg>
